<svg width="609" height="609" viewBox="0 0 609 609" fill="none" xmlns="http://www.w3.org/2000/svg">
<g id="Frame 1">
<g id="blobcomp">
<g id="blobshape">
<path d="M87.5 475.5C74 480.5 60 480 46.5 470C26 456.5 26.5 431 36.5 405C46.5 379 85.5 354 103.5 324C121.404 294.16 117.542 261.351 116.516 252.638L116.5 252.5C115.5 244 109.5 217.5 114 185C118.5 152.5 139 125 154 108.5C169 92 189.5 79.5 212 70C234.5 60.5 274 52.5 292 52C310 51.5 326.5 55.5 333 58.5C339.5 61.5 355.5 70.5 356 93C356.5 115.5 346 130.5 341 138C336 145.5 323.5 168.5 322.5 184C321.5 199.5 326.5 213 334.5 232C342.5 251 352.5 271.5 354 297.5C355.5 323.5 330.5 354 281.5 363.5C232.5 373 196.5 382.5 171.5 394C136.831 409.948 120 438.5 118 441.5C116 444.5 101 470.5 87.5 475.5Z" fill="#1D995F"/>
<path d="M526 188.5C517.5 188.5 495 195.5 494.5 211C494.5 223 503 228 509 232C515 236 531.5 241.5 538 241C544.5 240.5 549 238 549.5 232C550 226 543.5 223 538 219.5C532.5 216 528.5 212 528.5 208C528.5 204 530 203 531.5 201.5C533 200 535 197.5 535 194.5C535 191.5 534.5 188.5 526 188.5Z" fill="#1D995F"/>
<path d="M306.5 542C279 573.5 240 579.5 211 579.5C190 579.5 116.844 572 119.5 514C122.5 448.5 167.5 422.5 278.5 406C389.5 389.5 406 363.5 406.5 329C407 294.5 379.5 250 378.5 191.5C377.5 133 402 88 414 70.5C426 53 455 31 499.5 30C544 29 573.5 56 574.5 81.5C575.5 107 543 130.5 524.5 145C506 159.5 464.5 190.5 465.5 215C466.5 239.5 498.5 250 521.5 259.5C544.5 269 578 293 579 326.5C580 360 534 378 513 384.5C492 391 451.5 398 412 415.5C372.5 433 360.5 454 349 473C324.611 513.295 322.214 524 306.5 542Z" fill="#1D995F"/>
</g>
</g>
</g>
</svg>
