<svg width="780" height="780" viewBox="0 0 780 780" fill="none" xmlns="http://www.w3.org/2000/svg">
<g id="blobcomp1" clip-path="url(#clip0_1:5)">
<g id="blob-haikei 1" clip-path="url(#clip1_1:5)">
<g id="Group">
<path id="Vector" d="M593.21 279.478C585.772 327.881 585.975 360.227 574.155 387.271C562.336 414.314 538.576 436.046 511.496 459.223C484.409 482.319 454.046 506.897 419.113 513.177C384.18 519.457 344.757 507.43 327.674 479.906C310.635 452.418 315.966 409.307 304.871 369.673C293.776 330.038 266.211 293.844 263.16 252.631C260.116 211.499 281.506 165.356 318.663 124.77C355.777 84.1486 408.57 49.012 463.221 46.169C517.792 43.3345 574.177 72.7575 594.911 119.69C615.565 166.632 600.604 231.039 593.21 279.478Z" fill="#1D995F"/>
</g>
</g>
<g id="blob-haikei (1) 1">
<g id="Group_2">
<path id="Vector_2" d="M718.255 445.104C741.745 464.526 751.308 496.156 756.935 523.38C762.563 550.604 764.173 573.369 756.706 592.223C749.25 611.142 732.645 626.161 716.178 640.286C699.712 654.41 683.467 667.692 660.802 679.212C638.137 690.732 609.063 700.555 569.938 702.147C530.814 703.739 481.649 697.165 453.955 671.375C426.322 645.506 420.254 600.539 445.723 572.987C471.203 545.501 528.22 535.432 562.544 511.362C596.868 487.292 608.499 449.223 632.982 433.768C657.477 418.379 694.836 425.67 718.255 445.104Z" fill="#1D995F"/>
</g>
</g>
<g id="blob-haikei (2) 1">
<g id="Group_3">
<path id="Vector_3" d="M127.252 237.265C150.707 227.936 180.906 225.328 192.916 241.502C204.927 257.676 198.647 292.618 200.654 318.983C202.671 345.246 212.873 362.917 208.236 374.92C203.598 386.923 184.009 393.346 169.001 409.847C153.892 426.334 143.262 452.886 122.131 466.948C100.943 481.055 69.3 482.73 55.1584 465.781C41.1183 448.847 44.6252 413.348 49.12 387.822C53.5586 362.339 58.9849 346.829 62.7078 330.399C66.4869 313.926 68.6296 296.388 77.9491 279.631C87.2795 262.773 103.899 246.608 127.252 237.265Z" fill="#1D995F"/>
</g>
</g>
<g id="blob-haikei (3) 1">
<g id="Group_4">
<path id="Vector_4" d="M279.144 539.032C290.985 551.742 299.891 563.342 323.089 580.54C346.21 597.747 383.632 620.638 387.022 641.154C390.422 661.755 359.876 680.058 334.48 701.093C309.17 722.203 289.011 746.045 263.728 753.923C238.445 761.801 208.039 753.716 184.1 736.177C160.248 718.713 142.873 691.879 127.32 661.933C111.767 631.986 98.0366 598.926 100.515 567.147C102.993 535.368 121.603 504.878 147.13 493.728C172.648 482.494 205.007 490.609 228.656 501.61C252.296 512.527 267.226 526.331 279.144 539.032Z" fill="#1D995F"/>
</g>
</g>
</g>
<defs>
<clipPath id="clip0_1:5">
<rect width="780" height="780" fill="white"/>
</clipPath>
<clipPath id="clip1_1:5">
<rect width="508" height="519" fill="white" transform="translate(404.778 -89) rotate(39.5936)"/>
</clipPath>
</defs>
</svg>
