<svg width="773" height="773" viewBox="0 0 773 773" fill="none" xmlns="http://www.w3.org/2000/svg">
<g id="blobcomp" clip-path="url(#clip0_1:5)">
<g id="blob-haikei (8) 1">
<g id="Group">
<path id="Vector" d="M209.091 486.503C228.532 472.582 236.57 447.254 253.311 437.535C270.124 427.781 295.625 433.683 306.074 448.193C316.538 462.657 311.936 485.774 312.153 502.629C312.371 519.485 317.408 530.079 319.756 544.29C322.104 558.502 321.746 576.378 310.917 587.561C300.072 598.79 278.755 603.326 261.935 598.903C245.099 594.525 232.846 581.106 213.976 573.915C195.178 566.688 169.706 565.679 154.247 555.246C138.772 544.859 133.297 525.093 146.038 513.964C158.707 502.87 189.608 500.368 209.091 486.503Z" fill="#1D995F"/>
</g>
</g>
<g id="blob-haikei (6) 1">
<g id="Group_2">
<path id="Vector_2" d="M348.634 105.317C382.36 105.547 422.812 118.366 431.93 141.643C440.967 165.013 418.646 198.672 395.917 220.358C373.189 242.045 350.028 251.589 333.01 272.3C316.005 293.095 304.943 324.987 281.758 338.937C258.654 352.795 223.253 348.812 197.583 332.476C171.912 316.141 155.879 287.459 145.207 259.297C134.64 231.214 129.408 203.479 137.895 181.208C146.383 158.936 168.483 142.05 191.342 134.343C214.109 126.644 237.646 128.211 262.823 122.823C288.092 117.428 314.907 105.086 348.634 105.317Z" fill="#1D995F"/>
</g>
</g>
<g id="blob-haikei (7) 1">
<g id="Group_3">
<path id="Vector_3" d="M672.462 336.607C707.349 350.344 740.589 377.29 750.895 411.358C761.352 445.307 748.86 486.504 728.744 522.736C708.762 558.976 681.156 590.252 644.579 625.951C608.123 661.785 562.545 702.161 523.122 698.25C483.699 694.338 450.416 646.266 435.104 603.431C419.927 560.605 422.721 523.017 427.413 492.719C431.97 462.412 438.288 439.385 439.388 403.482C440.488 367.578 436.383 318.671 456.344 302.912C476.441 287.161 520.754 304.442 561.102 313.405C601.314 322.359 637.711 322.878 672.462 336.607Z" fill="#1D995F"/>
</g>
</g>
</g>
<defs>
<clipPath id="clip0_1:5">
<rect width="773" height="773" fill="white"/>
</clipPath>
</defs>
</svg>
