<svg id="visual" viewBox="0 0 900 300" width="900" height="300" xmlns="http://www.w3.org/2000/svg" xmlns:xlink="http://www.w3.org/1999/xlink" version="1.1"><path d="M0 190L11.5 193.2C23 196.3 46 202.7 69 183.7C92 164.7 115 120.3 138.2 109.2C161.3 98 184.7 120 207.8 127.7C231 135.3 254 128.7 277 125C300 121.3 323 120.7 346 130.8C369 141 392 162 415.2 180C438.3 198 461.7 213 484.8 220.2C508 227.3 531 226.7 554 228.2C577 229.7 600 233.3 623 219C646 204.7 669 172.3 692.2 155.2C715.3 138 738.7 136 761.8 134.5C785 133 808 132 831 147C854 162 877 193 888.5 208.5L900 224L900 301L888.5 301C877 301 854 301 831 301C808 301 785 301 761.8 301C738.7 301 715.3 301 692.2 301C669 301 646 301 623 301C600 301 577 301 554 301C531 301 508 301 484.8 301C461.7 301 438.3 301 415.2 301C392 301 369 301 346 301C323 301 300 301 277 301C254 301 231 301 207.8 301C184.7 301 161.3 301 138.2 301C115 301 92 301 69 301C46 301 23 301 11.5 301L0 301Z" fill="#1d995f"></path><path d="M0 220L11.5 200.7C23 181.3 46 142.7 69 135.2C92 127.7 115 151.3 138.2 149.8C161.3 148.3 184.7 121.7 207.8 129.8C231 138 254 181 277 201.2C300 221.3 323 218.7 346 209.7C369 200.7 392 185.3 415.2 183.5C438.3 181.7 461.7 193.3 484.8 188C508 182.7 531 160.3 554 158.7C577 157 600 176 623 175.7C646 175.3 669 155.7 692.2 159.8C715.3 164 738.7 192 761.8 193.5C785 195 808 170 831 157.7C854 145.3 877 145.7 888.5 145.8L900 146L900 301L888.5 301C877 301 854 301 831 301C808 301 785 301 761.8 301C738.7 301 715.3 301 692.2 301C669 301 646 301 623 301C600 301 577 301 554 301C531 301 508 301 484.8 301C461.7 301 438.3 301 415.2 301C392 301 369 301 346 301C323 301 300 301 277 301C254 301 231 301 207.8 301C184.7 301 161.3 301 138.2 301C115 301 92 301 69 301C46 301 23 301 11.5 301L0 301Z" fill="#3fa16c"></path><path d="M0 157L11.5 153.8C23 150.7 46 144.3 69 151.5C92 158.7 115 179.3 138.2 188.7C161.3 198 184.7 196 207.8 197.3C231 198.7 254 203.3 277 188.3C300 173.3 323 138.7 346 130C369 121.3 392 138.7 415.2 141.2C438.3 143.7 461.7 131.3 484.8 138.2C508 145 531 171 554 169.8C577 168.7 600 140.3 623 134.3C646 128.3 669 144.7 692.2 151.8C715.3 159 738.7 157 761.8 152.3C785 147.7 808 140.3 831 140.5C854 140.7 877 148.3 888.5 152.2L900 156L900 301L888.5 301C877 301 854 301 831 301C808 301 785 301 761.8 301C738.7 301 715.3 301 692.2 301C669 301 646 301 623 301C600 301 577 301 554 301C531 301 508 301 484.8 301C461.7 301 438.3 301 415.2 301C392 301 369 301 346 301C323 301 300 301 277 301C254 301 231 301 207.8 301C184.7 301 161.3 301 138.2 301C115 301 92 301 69 301C46 301 23 301 11.5 301L0 301Z" fill="#57a97a"></path><path d="M0 242L11.5 233.5C23 225 46 208 69 189.7C92 171.3 115 151.7 138.2 148C161.3 144.3 184.7 156.7 207.8 164.3C231 172 254 175 277 181.2C300 187.3 323 196.7 346 204C369 211.3 392 216.7 415.2 208.5C438.3 200.3 461.7 178.7 484.8 182.7C508 186.7 531 216.3 554 217.8C577 219.3 600 192.7 623 192.5C646 192.3 669 218.7 692.2 232.3C715.3 246 738.7 247 761.8 240.8C785 234.7 808 221.3 831 215C854 208.7 877 209.3 888.5 209.7L900 210L900 301L888.5 301C877 301 854 301 831 301C808 301 785 301 761.8 301C738.7 301 715.3 301 692.2 301C669 301 646 301 623 301C600 301 577 301 554 301C531 301 508 301 484.8 301C461.7 301 438.3 301 415.2 301C392 301 369 301 346 301C323 301 300 301 277 301C254 301 231 301 207.8 301C184.7 301 161.3 301 138.2 301C115 301 92 301 69 301C46 301 23 301 11.5 301L0 301Z" fill="#6cb187"></path><path d="M0 238L11.5 231.5C23 225 46 212 69 202.2C92 192.3 115 185.7 138.2 194.5C161.3 203.3 184.7 227.7 207.8 232.3C231 237 254 222 277 211.7C300 201.3 323 195.7 346 190C369 184.3 392 178.7 415.2 181.7C438.3 184.7 461.7 196.3 484.8 193.5C508 190.7 531 173.3 554 176.5C577 179.7 600 203.3 623 213.8C646 224.3 669 221.7 692.2 209.2C715.3 196.7 738.7 174.3 761.8 174.2C785 174 808 196 831 202.3C854 208.7 877 199.3 888.5 194.7L900 190L900 301L888.5 301C877 301 854 301 831 301C808 301 785 301 761.8 301C738.7 301 715.3 301 692.2 301C669 301 646 301 623 301C600 301 577 301 554 301C531 301 508 301 484.8 301C461.7 301 438.3 301 415.2 301C392 301 369 301 346 301C323 301 300 301 277 301C254 301 231 301 207.8 301C184.7 301 161.3 301 138.2 301C115 301 92 301 69 301C46 301 23 301 11.5 301L0 301Z" fill="#80b895"></path><path d="M0 234L11.5 233.7C23 233.3 46 232.7 69 234.7C92 236.7 115 241.3 138.2 234.5C161.3 227.7 184.7 209.3 207.8 208C231 206.7 254 222.3 277 229.5C300 236.7 323 235.3 346 228.5C369 221.7 392 209.3 415.2 209.3C438.3 209.3 461.7 221.7 484.8 226.5C508 231.3 531 228.7 554 226.2C577 223.7 600 221.3 623 221.5C646 221.7 669 224.3 692.2 225.8C715.3 227.3 738.7 227.7 761.8 218.2C785 208.7 808 189.3 831 182.5C854 175.7 877 181.3 888.5 184.2L900 187L900 301L888.5 301C877 301 854 301 831 301C808 301 785 301 761.8 301C738.7 301 715.3 301 692.2 301C669 301 646 301 623 301C600 301 577 301 554 301C531 301 508 301 484.8 301C461.7 301 438.3 301 415.2 301C392 301 369 301 346 301C323 301 300 301 277 301C254 301 231 301 207.8 301C184.7 301 161.3 301 138.2 301C115 301 92 301 69 301C46 301 23 301 11.5 301L0 301Z" fill="#93c0a3"></path><path d="M0 250L11.5 250C23 250 46 250 69 248C92 246 115 242 138.2 240.3C161.3 238.7 184.7 239.3 207.8 232.7C231 226 254 212 277 216.8C300 221.7 323 245.3 346 254C369 262.7 392 256.3 415.2 254.2C438.3 252 461.7 254 484.8 246.8C508 239.7 531 223.3 554 217.2C577 211 600 215 623 220.7C646 226.3 669 233.7 692.2 234C715.3 234.3 738.7 227.7 761.8 221C785 214.3 808 207.7 831 205.5C854 203.3 877 205.7 888.5 206.8L900 208L900 301L888.5 301C877 301 854 301 831 301C808 301 785 301 761.8 301C738.7 301 715.3 301 692.2 301C669 301 646 301 623 301C600 301 577 301 554 301C531 301 508 301 484.8 301C461.7 301 438.3 301 415.2 301C392 301 369 301 346 301C323 301 300 301 277 301C254 301 231 301 207.8 301C184.7 301 161.3 301 138.2 301C115 301 92 301 69 301C46 301 23 301 11.5 301L0 301Z" fill="#a6c7b1"></path><path d="M0 267L11.5 262C23 257 46 247 69 244.7C92 242.3 115 247.7 138.2 253.7C161.3 259.7 184.7 266.3 207.8 269.7C231 273 254 273 277 272C300 271 323 269 346 263.7C369 258.3 392 249.7 415.2 244.5C438.3 239.3 461.7 237.7 484.8 237.5C508 237.3 531 238.7 554 241C577 243.3 600 246.7 623 250.7C646 254.7 669 259.3 692.2 258.7C715.3 258 738.7 252 761.8 252.8C785 253.7 808 261.3 831 262.7C854 264 877 259 888.5 256.5L900 254L900 301L888.5 301C877 301 854 301 831 301C808 301 785 301 761.8 301C738.7 301 715.3 301 692.2 301C669 301 646 301 623 301C600 301 577 301 554 301C531 301 508 301 484.8 301C461.7 301 438.3 301 415.2 301C392 301 369 301 346 301C323 301 300 301 277 301C254 301 231 301 207.8 301C184.7 301 161.3 301 138.2 301C115 301 92 301 69 301C46 301 23 301 11.5 301L0 301Z" fill="#b8cfc0"></path><path d="M0 253L11.5 255.8C23 258.7 46 264.3 69 267C92 269.7 115 269.3 138.2 267.3C161.3 265.3 184.7 261.7 207.8 258.2C231 254.7 254 251.3 277 250.5C300 249.7 323 251.3 346 256C369 260.7 392 268.3 415.2 271.2C438.3 274 461.7 272 484.8 268.2C508 264.3 531 258.7 554 258.8C577 259 600 265 623 268.2C646 271.3 669 271.7 692.2 271.8C715.3 272 738.7 272 761.8 265.8C785 259.7 808 247.3 831 247C854 246.7 877 258.3 888.5 264.2L900 270L900 301L888.5 301C877 301 854 301 831 301C808 301 785 301 761.8 301C738.7 301 715.3 301 692.2 301C669 301 646 301 623 301C600 301 577 301 554 301C531 301 508 301 484.8 301C461.7 301 438.3 301 415.2 301C392 301 369 301 346 301C323 301 300 301 277 301C254 301 231 301 207.8 301C184.7 301 161.3 301 138.2 301C115 301 92 301 69 301C46 301 23 301 11.5 301L0 301Z" fill="#cbd6ce"></path><path d="M0 270L11.5 272C23 274 46 278 69 280.2C92 282.3 115 282.7 138.2 280.5C161.3 278.3 184.7 273.7 207.8 271.5C231 269.3 254 269.7 277 271.3C300 273 323 276 346 276.2C369 276.3 392 273.7 415.2 270.3C438.3 267 461.7 263 484.8 263.5C508 264 531 269 554 273.7C577 278.3 600 282.7 623 280.2C646 277.7 669 268.3 692.2 263.8C715.3 259.3 738.7 259.7 761.8 262.3C785 265 808 270 831 274C854 278 877 281 888.5 282.5L900 284L900 301L888.5 301C877 301 854 301 831 301C808 301 785 301 761.8 301C738.7 301 715.3 301 692.2 301C669 301 646 301 623 301C600 301 577 301 554 301C531 301 508 301 484.8 301C461.7 301 438.3 301 415.2 301C392 301 369 301 346 301C323 301 300 301 277 301C254 301 231 301 207.8 301C184.7 301 161.3 301 138.2 301C115 301 92 301 69 301C46 301 23 301 11.5 301L0 301Z" fill="#dddddd"></path></svg>